<?xml version="1.0" encoding="UTF-8" standalone="no"?>
<!-- Created with Inkscape (http://www.inkscape.org/) -->

<svg
   xmlns:dc="http://purl.org/dc/elements/1.1/"
   xmlns:cc="http://creativecommons.org/ns#"
   xmlns:rdf="http://www.w3.org/1999/02/22-rdf-syntax-ns#"
   xmlns:svg="http://www.w3.org/2000/svg"
   xmlns="http://www.w3.org/2000/svg"
   xmlns:sodipodi="http://sodipodi.sourceforge.net/DTD/sodipodi-0.dtd"
   xmlns:inkscape="http://www.inkscape.org/namespaces/inkscape"
   width="66.270134mm"
   height="88.510727mm"
   viewBox="0 0 234.81544 313.62068"
   id="svg2"
   version="1.1"
   inkscape:version="0.91 r13725"
   sodipodi:docname="zyklope.svg">
  <defs
     id="defs4" />
  <sodipodi:namedview
     id="base"
     pagecolor="#ffffff"
     bordercolor="#666666"
     borderopacity="1.0"
     inkscape:pageopacity="0.0"
     inkscape:pageshadow="2"
     inkscape:zoom="1.4"
     inkscape:cx="128.86964"
     inkscape:cy="32.687908"
     inkscape:document-units="px"
     inkscape:current-layer="layer1"
     showgrid="false"
     inkscape:window-width="2560"
     inkscape:window-height="1017"
     inkscape:window-x="-8"
     inkscape:window-y="-8"
     inkscape:window-maximized="1"
     fit-margin-top="0"
     fit-margin-left="0"
     fit-margin-right="0"
     fit-margin-bottom="0" />
  <metadata
     id="metadata7">
    <rdf:RDF>
      <cc:Work
         rdf:about="">
        <dc:format>image/svg+xml</dc:format>
        <dc:type
           rdf:resource="http://purl.org/dc/dcmitype/StillImage" />
        <dc:title></dc:title>
      </cc:Work>
    </rdf:RDF>
  </metadata>
  <g
     inkscape:label="Ebene 1"
     inkscape:groupmode="layer"
     id="layer1"
     transform="translate(-190.97336,-6.5986524)">
    <path
       style="opacity:1;fill:#000000;fill-opacity:1;stroke:none;stroke-width:10;stroke-linecap:round;stroke-miterlimit:4;stroke-dasharray:none;stroke-opacity:1"
       d="m 401.89762,205.44335 c -20.15701,24.55245 -16.41582,42.20999 -31.92946,83.04342 -12.42925,32.71502 -60.49342,23.95135 -107.58856,23.24922 -36.78688,-0.54844 -21.42392,-50.30998 -52.90518,-100.48404 -22.2728,-35.49784 -17.96952,-52.7423 -18.45886,-101.76131 -0.47015,-47.098025 5.4839,-60.219625 43.32024,-82.047425 37.83635,-21.8278017 66.10724,-27.13992749 108.78463,-12.953379 44.69566,14.857446 46.43259,16.018401 73.32729,50.438117 19.95398,25.537011 1.73274,97.229947 1.73274,97.229947"
       id="path4229"
       inkscape:connector-curvature="0"
       sodipodi:nodetypes="csssssssc" />
    <path
       style="opacity:1;fill:#ffffff;fill-opacity:1;stroke:none;stroke-width:10;stroke-linecap:round;stroke-miterlimit:4;stroke-dasharray:none;stroke-opacity:1"
       d="m 302.14286,185.93364 c 4.52381,0 9.04762,0 13.57143,0 4.28571,18.57143 16.42857,37.14285 12.85714,55.71428 -12.38095,0.23809 -24.76191,0.47619 -37.14286,0.71428 0,-18.80952 7.14286,-37.61904 10.71429,-56.42856 z"
       id="rect4165"
       inkscape:connector-curvature="0"
       sodipodi:nodetypes="ccccc" />
    <path
       style="opacity:1;fill:#ffffff;fill-opacity:1;stroke:none;stroke-width:10;stroke-linecap:round;stroke-miterlimit:4;stroke-dasharray:none;stroke-opacity:1"
       d="m 274.14836,313.43363 8.87363,0 8.40659,-39.49366 -24.28572,-0.50633 z"
       id="rect4165-9"
       inkscape:connector-curvature="0"
       sodipodi:nodetypes="ccccc" />
    <path
       style="opacity:1;fill:#ffffff;fill-opacity:1;stroke:none;stroke-width:10;stroke-linecap:round;stroke-miterlimit:4;stroke-dasharray:none;stroke-opacity:1"
       d="m 299.14836,320.21934 8.87363,0 8.40659,-39.49366 -24.28572,-0.50633 z"
       id="rect4165-9-9"
       inkscape:connector-curvature="0"
       sodipodi:nodetypes="ccccc" />
    <path
       style="opacity:1;fill:#ffffff;fill-opacity:1;stroke:none;stroke-width:10;stroke-linecap:round;stroke-miterlimit:4;stroke-dasharray:none;stroke-opacity:1"
       d="m 325.57693,312.3622 8.87363,0 8.40659,-39.49366 -24.28572,-0.50633 z"
       id="rect4165-9-90"
       inkscape:connector-curvature="0"
       sodipodi:nodetypes="ccccc" />
    <path
       style="opacity:1;fill:#ffffff;fill-opacity:1;stroke:none;stroke-width:10;stroke-linecap:round;stroke-miterlimit:4;stroke-dasharray:none;stroke-opacity:1"
       id="path4225"
       sodipodi:type="arc"
       sodipodi:cx="307.85712"
       sodipodi:cy="125.93363"
       sodipodi:rx="45.714287"
       sodipodi:ry="43.57143"
       sodipodi:start="0.27994907"
       sodipodi:end="0.25144959"
       sodipodi:open="true"
       d="m 351.79172,137.97271 a 45.714287,43.57143 0 0 1 -56.25242,29.92081 45.714287,43.57143 0 0 1 -31.79231,-53.40105 45.714287,43.57143 0 0 1 55.79939,-30.681757 45.714287,43.57143 0 0 1 32.58744,52.963847" />
    <path
       style="opacity:1;fill:#800000;fill-opacity:1;stroke:none;stroke-width:10;stroke-linecap:round;stroke-miterlimit:4;stroke-dasharray:none;stroke-opacity:1"
       id="path4227"
       sodipodi:type="arc"
       sodipodi:cx="307.85715"
       sodipodi:cy="128.07649"
       sodipodi:rx="42.857143"
       sodipodi:ry="14.285714"
       sodipodi:start="0.27994907"
       sodipodi:end="0.25144959"
       sodipodi:open="true"
       d="m 349.04584,132.02373 a 42.857143,14.285714 0 0 1 -52.73665,9.8101 42.857143,14.285714 0 0 1 -29.80529,-17.50854 42.857143,14.285714 0 0 1 52.31193,-10.05959 42.857143,14.285714 0 0 1 30.55072,17.3652" />
  </g>
</svg>
